<svg width="28" height="28" viewBox="0 0 28 28" fill="currentColor" xmlns="http://www.w3.org/2000/svg">
<g id="Group 10">
<g id="Union">
<path d="M11.6213 3.51493C11.8439 2.62459 12.6564 2 13.5742 2C15.3787 2 16.8023 3.58155 16.5785 5.3721L16 10H22.9593C24.9715 10 26.4131 11.9418 25.831 13.8679L23.111 22.8679C22.7284 24.1339 21.5619 25 20.2393 25H13C11.3431 25 10 23.6569 10 22V10L11.6213 3.51493Z" fill="currentColor"/>
<path d="M5.5 11C4.11929 11 3 12.1193 3 13.5V21.5C3 22.8807 4.11929 24 5.5 24C6.88071 24 8 22.8807 8 21.5V13.5C8 12.1193 6.88071 11 5.5 11Z" fill="currentColor"/>
</g>
</g>
</svg>
