<svg width="28" height="28" viewBox="0 0 28 28" fill="currentColor" xmlns="http://www.w3.org/2000/svg">
<g id="ic_&#230;&#182;&#136;&#230;&#129;&#175;">
<g id="Union">
<path d="M7 9C7 5.13401 10.134 2 14 2C17.866 2 21 5.13401 21 9V14C22.6569 14 24 15.3431 24 17C24 18.6569 22.6569 20 21 20H7C5.34315 20 4 18.6569 4 17C4 15.3431 5.34315 14 7 14V9Z" fill="currentColor"/>
<path d="M12 22C11.4477 22 11 22.4477 11 23C11 24.6569 12.3431 26 14 26C15.6569 26 17 24.6569 17 23C17 22.4477 16.5523 22 16 22H12Z" fill="currentColor"/>
</g>
</g>
</svg>
