<svg width="28" height="28" viewBox="0 0 28 28" fill="currentColor" xmlns="http://www.w3.org/2000/svg">
<g id="ic_&#231;&#137;&#185;&#230;&#149;&#136;">
<g id="Union">
<path d="M24.1299 6.20013C24.7053 4.6067 23.1629 3.06429 21.5695 3.63971L17.1865 5.2225C16.8729 5.33577 16.5234 5.28523 16.2547 5.08774L12.4987 2.3274C11.187 1.36338 9.33452 2.28663 9.31449 3.91437L9.25405 8.82471C9.25014 9.14208 9.09581 9.43875 8.83817 9.62412L4.85433 12.4906C3.49914 13.4656 3.86459 15.5738 5.4689 16.0359L9.80166 17.2837C10.1322 17.3789 10.3906 17.6374 10.4858 17.9679L11.7337 22.3007C12.1958 23.905 14.304 24.2704 15.279 22.9153L18.1455 18.9314C18.3308 18.6738 18.6275 18.5194 18.9449 18.5155L23.8552 18.4551C25.483 18.4351 26.4062 16.5826 25.4422 15.2709L22.6818 11.5149C22.4844 11.2462 22.4338 10.8967 22.5471 10.5831L24.1299 6.20013Z" fill="currentColor"/>
<path d="M8.25302 19.5166C7.47197 18.7355 6.20564 18.7355 5.42459 19.5166L2.59616 22.345C1.81511 23.126 1.81511 24.3924 2.59616 25.1734C3.37721 25.9545 4.64354 25.9545 5.42459 25.1734L8.25302 22.345C9.03407 21.5639 9.03407 20.2976 8.25302 19.5166Z" fill="currentColor"/>
</g>
</g>
</svg>
