<svg width="28" height="28" viewBox="0 0 28 28" fill="currentColor" xmlns="http://www.w3.org/2000/svg">
<g id="Group 5">
<path id="Union" d="M14 0C8.47715 0 4 4.47715 4 10V10.0354C2.30385 10.2781 1 11.7368 1 13.5V17.5C1 19.433 2.567 21 4.5 21C6.433 21 8 19.433 8 17.5V10C8 6.68629 10.6863 4 14 4C17.3137 4 20 6.68629 20 10V18C20 21.3137 17.3137 24 14 24H13C12.4477 24 12 24.4477 12 25V27C12 27.5523 12.4477 28 13 28H14C18.4777 28 22.2681 25.057 23.5423 20.9997C25.4558 20.9771 27 19.4189 27 17.5V13.5C27 11.7368 25.6961 10.2781 24 10.0354V10C24 4.47715 19.5228 0 14 0Z" fill="currentColor"/>
</g>
</svg>
