<svg width="28" height="28" viewBox="0 0 28 28" fill="currentColor" xmlns="http://www.w3.org/2000/svg">
<g id="Group 9">
<path id="Union" fill-rule="evenodd" clip-rule="evenodd" d="M26 14C26 20.6274 20.6274 26 14 26H3.67459C2.50319 26 1.78384 24.7174 2.39466 23.7178L4.14661 20.851C2.79344 18.9084 2 16.5469 2 14C2 7.37258 7.37258 2 14 2C20.6274 2 26 7.37258 26 14ZM8 13.875C8 13.3918 8.39175 13 8.875 13H19.125C19.6082 13 20 13.3918 20 13.875V14C20 17.3137 17.3137 20 14 20C10.6863 20 8 17.3137 8 14V13.875Z" fill="currentColor"/>
</g>

</svg>
