<svg width="28" height="28" viewBox="0 0 28 28" fill="currentColor" xmlns="http://www.w3.org/2000/svg">
<g id="Group 6">
<path id="Union" fill-rule="evenodd" clip-rule="evenodd" d="M20 5.5C20 5.66976 19.9879 5.8367 19.9646 6H24C25.1046 6 26 6.89543 26 8V11C26 12.1046 25.1046 13 24 13V22C24 24.2091 22.2091 26 20 26H8C5.79086 26 4 24.2091 4 22L4 13C2.89543 13 2 12.1046 2 11V8C2 6.89543 2.89543 6 4 6H8C8 4.34315 9.34315 3 11 3C11.9246 3 12.7515 3.41829 13.3018 4.07596C13.8474 2.85268 15.0741 2 16.5 2C18.433 2 20 3.567 20 5.5ZM11.9429 13C10.489 13.0001 9 13.8479 9 15.7091C9 18.4833 11.4306 20.1824 13.1132 21.3586C13.6398 21.7267 14.3602 21.7267 14.8868 21.3586C16.5694 20.1824 19 18.4833 19 15.7091C19 13.8479 17.511 13.0001 16.0571 13C15.2858 13 14.5239 13.2387 14 13.6913C13.4761 13.2387 12.7142 13 11.9429 13Z" fill="currentColor"/>
</g>
</svg>
