<svg width="28" height="28" viewBox="0 0 28 28" fill="currentColor" xmlns="http://www.w3.org/2000/svg">
<g id="Group 4">
<g id="Subtract">
<path d="M16.5 14C16.5 15.3807 15.3807 16.5 14 16.5C12.6193 16.5 11.5 15.3807 11.5 14C11.5 12.6193 12.6193 11.5 14 11.5C15.3807 11.5 16.5 12.6193 16.5 14Z" fill="currentColor"/>
<path fill-rule="evenodd" clip-rule="evenodd" d="M14 0C12.1807 0 10.7059 1.47483 10.7059 3.29412V5.05321C10.7059 5.42005 10.2624 5.60377 10.003 5.34437L8.75909 4.10051C7.47266 2.81407 5.38694 2.81407 4.10051 4.10051C2.81407 5.38694 2.81407 7.47266 4.10051 8.75909L5.34437 10.003C5.60377 10.2624 5.42005 10.7059 5.05321 10.7059H3.29412C1.47483 10.7059 0 12.1807 0 14C0 15.8193 1.47483 17.2941 3.29412 17.2941H5.05321C5.42005 17.2941 5.60377 17.7376 5.34437 17.997L4.1005 19.2409C2.81407 20.5273 2.81407 22.6131 4.1005 23.8995C5.38694 25.1859 7.47266 25.1859 8.75909 23.8995L10.003 22.6556C10.2624 22.3962 10.7059 22.5799 10.7059 22.9468V24.7059C10.7059 26.5252 12.1807 28 14 28C15.8193 28 17.2941 26.5252 17.2941 24.7059V22.9468C17.2941 22.58 17.7376 22.3962 17.997 22.6556L19.2409 23.8995C20.5273 25.1859 22.6131 25.1859 23.8995 23.8995C25.1859 22.6131 25.1859 20.5273 23.8995 19.2409L22.6556 17.997C22.3962 17.7376 22.5799 17.2941 22.9468 17.2941H24.7059C26.5252 17.2941 28 15.8193 28 14C28 12.1807 26.5252 10.7059 24.7059 10.7059H22.9468C22.5799 10.7059 22.3962 10.2624 22.6556 10.003L23.8995 8.75909C25.1859 7.47266 25.1859 5.38694 23.8995 4.1005C22.6131 2.81407 20.5273 2.81407 19.2409 4.1005L17.997 5.34437C17.7376 5.60377 17.2941 5.42005 17.2941 5.05321V3.29412C17.2941 1.47483 15.8193 0 14 0ZM20.5 14C20.5 17.5899 17.5899 20.5 14 20.5C10.4101 20.5 7.5 17.5899 7.5 14C7.5 10.4101 10.4101 7.5 14 7.5C17.5899 7.5 20.5 10.4101 20.5 14Z" fill="currentColor"/>
</g>
</g>
</svg>
