<svg width="28" height="28" viewBox="0 0 28 28" fill="currentColor" xmlns="http://www.w3.org/2000/svg">
<g id="ic_&#229;&#163;&#176;&#230;&#179;&#162;">
<g id="Vector">
<path d="M14 5C14 3.89543 14.8954 3 16 3C17.1046 3 18 3.89543 18 5V23C18 24.1046 17.1046 25 16 25C14.8954 25 14 24.1046 14 23V5Z" fill="currentColor"/>
<path d="M20 10C20 8.89543 20.8954 8 22 8C23.1046 8 24 8.89543 24 10V18C24 19.1046 23.1046 20 22 20C20.8954 20 20 19.1046 20 18V10Z" fill="currentColor"/>
<path d="M8 8C8 6.89543 8.89543 6 10 6C11.1046 6 12 6.89543 12 8V20C12 21.1046 11.1046 22 10 22C8.89543 22 8 21.1046 8 20V8Z" fill="currentColor"/>
<path d="M2 12C2 10.8954 2.89543 10 4 10C5.10457 10 6 10.8954 6 12V16C6 17.1046 5.10457 18 4 18C2.89543 18 2 17.1046 2 16V12Z" fill="currentColor"/>
</g>
</g>
</svg>
