<svg width="28" height="28" viewBox="0 0 28 28" fill="currentColor" xmlns="http://www.w3.org/2000/svg">
<g id="Group 1">
<g id="Union">
<path d="M9 1.5C7.89543 1.5 7 2.39543 7 3.5C7 4.60457 7.89543 5.5 9 5.5H19C20.1046 5.5 21 4.60457 21 3.5C21 2.39543 20.1046 1.5 19 1.5H9Z" fill="currentColor"/>
<path d="M14 19.5C15.3807 19.5 16.5 18.3807 16.5 17C16.5 15.6193 15.3807 14.5 14 14.5C12.6193 14.5 11.5 15.6193 11.5 17C11.5 18.3807 12.6193 19.5 14 19.5Z" fill="currentColor"/>
<path fill-rule="evenodd" clip-rule="evenodd" d="M3 12C3 9.79086 4.79086 8 7 8H21C23.2091 8 25 9.79086 25 12V21.5C25 23.7091 23.2091 25.5 21 25.5H7C4.79086 25.5 3 23.7091 3 21.5V12ZM14 23.5C17.5899 23.5 20.5 20.5899 20.5 17C20.5 13.4101 17.5899 10.5 14 10.5C10.4101 10.5 7.5 13.4101 7.5 17C7.5 20.5899 10.4101 23.5 14 23.5Z" fill="currentColor"/>
</g>
</g>
</svg>
