<svg width="28" height="28" viewBox="0 0 28 28" fill="currentColor" xmlns="http://www.w3.org/2000/svg">
<g id="Group 2">
<g id="Union">
<path d="M14 1.5C10.6863 1.5 8 4.18629 8 7.5V9.5C8 10.0523 8.44772 10.5 9 10.5H11C11.5523 10.5 12 10.0523 12 9.5V7.5C12 6.39543 12.8954 5.5 14 5.5C15.1046 5.5 16 6.39543 16 7.5V9.5C16 10.0523 16.4477 10.5 17 10.5H19C19.5523 10.5 20 10.0523 20 9.5V7.5C20 4.18629 17.3137 1.5 14 1.5Z" fill="currentColor"/>
<path d="M8.5 13C6.29086 13 4.5 14.7909 4.5 17V22C4.5 24.2091 6.29086 26 8.5 26H19.5C21.7091 26 23.5 24.2091 23.5 22V17C23.5 14.7909 21.7091 13 19.5 13H8.5Z" fill="currentColor"/>
</g>
</g>
</svg>
