<svg width="28" height="28" viewBox="0 0 28 28" fill="currentColor" xmlns="http://www.w3.org/2000/svg">
<g id="Group 8">
<path id="Union" fill-rule="evenodd" clip-rule="evenodd" d="M19.6632 7C19.8792 6.54537 20 6.0368 20 5.5C20 3.567 18.433 2 16.5 2C15.0741 2 13.8474 2.85268 13.3018 4.07596C12.7515 3.41829 11.9246 3 11 3C9.34315 3 8 4.34315 8 6C8 6.35064 8.06015 6.68722 8.17071 7H6C3.79086 7 2 8.79086 2 11V21C2 23.2091 3.79086 25 6 25H22C24.2091 25 26 23.2091 26 21V11C26 8.79086 24.2091 7 22 7H19.6632ZM18.4223 17.7889C19.8964 17.0518 19.8964 14.9482 18.4223 14.2111L12.8944 11.4472C11.5646 10.7823 10 11.7493 10 13.2361V18.7639C10 20.2507 11.5646 21.2177 12.8944 20.5528L18.4223 17.7889Z" fill="currentColor"/>
</g>
</svg>
