<svg width="28" height="28" viewBox="0 0 28 28" fill="currentColor" xmlns="http://www.w3.org/2000/svg">
<g id="Group 3">
<g id="Union">
<path d="M6.5 2.5C4.29086 2.5 2.5 4.29086 2.5 6.5V21.5C2.5 23.7091 4.29086 25.5 6.5 25.5H10.5C12.7091 25.5 14.5 23.7091 14.5 21.5V6.5C14.5 4.29086 12.7091 2.5 10.5 2.5H6.5Z" fill="currentColor"/>
<path d="M18.7071 19.6404C18.0771 20.2703 17 19.8242 17 18.9332V5.24371C17 4.92062 17.1522 4.60965 17.4376 4.45811C18.9248 3.66828 20.8122 3.89976 22.065 5.15254L24.8475 7.93503C26.3842 9.47175 26.3842 11.9633 24.8475 13.5L18.7071 19.6404Z" fill="currentColor"/>
</g>
</g>
</svg>
